<?xml version="1.0" encoding="UTF-8" standalone="no"?>
<!DOCTYPE svg PUBLIC "-//W3C//DTD SVG 1.1//EN" "http://www.w3.org/Graphics/SVG/1.1/DTD/svg11.dtd">
<!-- Generated by Microsoft Visio, SVG Export logo-mobile.svg Page-1 -->
<svg xmlns="http://www.w3.org/2000/svg" xmlns:xlink="http://www.w3.org/1999/xlink" xmlns:ev="http://www.w3.org/2001/xml-events"
		xmlns:v="http://schemas.microsoft.com/visio/2003/SVGExtensions/" width="0.456802in" height="0.512298in"
		viewBox="0 0 32.8898 36.8854" xml:space="preserve" color-interpolation-filters="sRGB" class="st3">
	<v:documentProperties v:langID="4105" v:metric="true" v:viewMarkup="false"/>

	<style type="text/css">
	<![CDATA[
		.st1 {fill:none}
		.st2 {stroke:#045bbb;stroke-linecap:round;stroke-linejoin:round;stroke-width:1}
		.st3 {fill:none;fill-rule:evenodd;font-size:12px;overflow:visible;stroke-linecap:square;stroke-miterlimit:3}
	]]>
	</style>

	<g v:mID="0" v:index="1" v:groupContext="foregroundPage">
		<title>Page-1</title>
		<v:pageProperties v:drawingScale="0.0393701" v:pageScale="0.0393701" v:drawingUnits="24" v:shadowOffsetX="8.50394"
				v:shadowOffsetY="-8.50394"/>
		<g id="shape1-1" v:mID="1" v:groupContext="shape" transform="translate(0.5,-0.5)">
			<title>Sheet.1</title>
			<path d="M0 30.22 L0 30.27 L7.07 30.27 L7.07 10.42 L0 30.22 ZM4.13 36.89 L27 36.89 L30.67 33.72 L2.38 33.72 L0.9 35.83
						 L4.13 36.89 ZM8.17 30.16 L18.75 30.16 L18.75 33.72 L30.34 33.72 L18.73 1 L18.65 1 L8.17 30.03 L8.17 30.16
						 ZM13.96 30.97 L9.75 30.97 A1.05545 1.05545 -180 0 0 8.74 31.74 L8.25 33.45 a0.211091 0.211091 -180 0 0 0.202969
						 0.269082 L15.96 33.72 a0.211091 0.211091 -180 0 0 0.175638 -0.328183 L14.84 31.44 A1.05545 1.05545 -180
						 0 0 13.96 30.97 Z" class="st1"/>
			<path d="M0 30.22 L0 30.27 L7.07 30.27 L7.07 10.42 L0 30.22" class="st2"/>
			<path d="M4.13 36.89 L27 36.89 L30.67 33.72 L2.38 33.72 L0.9 35.83 L4.13 36.89" class="st2"/>
			<path d="M7.12 10.95 L7.12 33.72" class="st2"/>
			<path d="M8.17 30.16 L18.75 30.16 L18.75 33.72 L30.34 33.72 L18.73 1 L18.65 1 L8.17 30.03 L8.17 30.16" class="st2"/>
			<path d="M13.96 30.97 L9.75 30.97 A1.05545 1.05545 -180 0 0 8.74 31.74 L8.25 33.45 a0.211091 0.211091 -180 0 0 0.202969
						 0.269082 L15.96 33.72 a0.211091 0.211091 -180 0 0 0.175638 -0.328183 L14.84 31.44 A1.05545 1.05545 -180
						 0 0 13.96 30.97" class="st2"/>
			<path d="M18.73 1 L18.73 33.72" class="st2"/>
			<path d="M30.34 33.72 L31.89 33.72" class="st2"/>
		</g>
	</g>
</svg>
